<?xml version="1.0" standalone="no"?>
<!DOCTYPE svg PUBLIC "-//W3C//DTD SVG 20010904//EN"
 "http://www.w3.org/TR/2001/REC-SVG-20010904/DTD/svg10.dtd">
<svg version="1.0" xmlns="http://www.w3.org/2000/svg"
 width="837.000000pt" height="837.000000pt" viewBox="0 0 837.000000 837.000000"
 preserveAspectRatio="xMidYMid meet">
<metadata>
Created by potrace 1.14, written by Peter Selinger 2001-2017
</metadata>
<g transform="translate(0.000000,837.000000) scale(0.100000,-0.100000)"
fill="#000000" stroke="none">
<path d="M5562 6797 c-27 -15 -47 -44 -136 -199 l-67 -117 -57 25 c-432 195
-810 279 -1237 278 -110 -1 -243 -7 -295 -13 -537 -67 -997 -287 -1330 -638
-160 -169 -290 -371 -290 -451 0 -51 41 -135 81 -164 19 -14 331 -196 694
-405 363 -209 1290 -744 2060 -1188 770 -444 1421 -818 1446 -831 88 -45 195
-24 257 51 78 96 190 377 238 603 32 146 43 436 25 613 -55 523 -314 1054
-727 1488 -104 110 -275 257 -415 359 l-87 63 84 146 c121 211 118 229 -56
327 -108 62 -152 74 -188 53z"/>
<path d="M1130 4260 l0 -90 170 0 170 0 0 90 c0 50 -3 90 -6 90 -4 0 -44 -20
-88 -44 l-82 -45 -75 44 c-40 25 -77 45 -81 45 -5 0 -8 -40 -8 -90z"/>
<path d="M2562 4220 l3 -130 -42 0 -43 0 0 -100 0 -100 -50 0 -50 0 -2 -431
-3 -432 -352 394 -353 394 0 78 0 77 -69 0 c-39 0 -73 5 -76 10 -3 6 -1 10 4
10 7 0 11 30 11 80 l0 80 -250 0 -250 0 0 -80 0 -80 196 0 c127 0 193 -3 189
-10 -4 -6 -100 -10 -256 -10 l-249 0 0 -934 0 -933 366 -8 c201 -4 367 -5 369
-3 3 2 5 139 6 304 1 164 4 318 8 342 l6 42 397 -447 c218 -247 407 -459 419
-471 16 -18 28 -23 50 -18 26 5 29 3 29 -19 l0 -25 -552 2 -553 3 -3 43 -3 42
-164 0 -164 0 -3 -42 -3 -43 -165 -5 c-230 -7 -230 -7 -230 -213 0 -106 3
-137 16 -156 39 -54 -194 -51 3536 -51 2301 0 3465 3 3489 10 59 17 73 47 77
175 5 131 -8 188 -45 213 -26 16 -161 17 -2344 22 l-2317 5 72 125 c418 719
1135 1968 1138 1979 3 16 -342 224 -354 213 -5 -6 -376 -646 -791 -1364 -50
-87 -94 -158 -99 -158 -4 0 -8 290 -8 645 l0 645 -50 0 -50 0 0 100 0 100 -40
0 -39 0 -3 130 -3 130 -87 -51 -88 -50 -84 50 c-46 28 -87 51 -90 51 -4 0 -6
-59 -4 -130z m-513 -1035 l331 -370 0 -83 c0 -51 -4 -81 -10 -77 -5 3 -165
186 -355 406 l-345 400 0 72 0 72 24 -25 c14 -14 173 -191 355 -395z m-10
-418 l342 -398 -3 -52 -3 -52 -350 394 -350 394 -3 71 c-2 61 -1 69 11 56 8
-8 168 -194 356 -413z m446 -607 c3 -5 1 -10 -4 -10 -6 0 -11 5 -11 10 0 6 2
10 4 10 3 0 8 -4 11 -10z"/>
<path d="M1040 1995 l0 -75 250 0 250 0 0 75 0 75 -250 0 -250 0 0 -75z"/>
</g>
</svg>
